<mxfile host="65bd71144e">
    <diagram id="1fi5Kx5LPePZL9SqUFNj" name="Page-1">
        <mxGraphModel dx="902" dy="878" grid="0" gridSize="10" guides="1" tooltips="1" connect="1" arrows="1" fold="1" page="0" pageScale="1" pageWidth="850" pageHeight="1100" math="0" shadow="0">
            <root>
                <mxCell id="0"/>
                <mxCell id="1" parent="0"/>
                <mxCell id="39" value="" style="rounded=0;whiteSpace=wrap;html=1;" parent="1" vertex="1">
                    <mxGeometry x="145" y="-59" width="305" height="187" as="geometry"/>
                </mxCell>
                <mxCell id="16" value="Demoras en pago de cuotas" style="ellipse;whiteSpace=wrap;html=1;" parent="1" vertex="1">
                    <mxGeometry x="172" y="47" width="140" height="70" as="geometry"/>
                </mxCell>
                <mxCell id="40" value="Notificaciones" style="text;html=1;align=center;verticalAlign=middle;resizable=0;points=[];autosize=1;strokeColor=none;" parent="1" vertex="1">
                    <mxGeometry x="348" y="-53" width="85" height="18" as="geometry"/>
                </mxCell>
                <mxCell id="67" style="edgeStyle=none;html=1;entryX=0;entryY=0.5;entryDx=0;entryDy=0;exitX=0.5;exitY=0.5;exitDx=0;exitDy=0;exitPerimeter=0;" parent="1" source="65" target="42" edge="1">
                    <mxGeometry relative="1" as="geometry">
                        <mxPoint x="70" y="23" as="sourcePoint"/>
                    </mxGeometry>
                </mxCell>
                <mxCell id="42" value="Cambios en el estado solicitud de prestamo" style="ellipse;whiteSpace=wrap;html=1;" parent="1" vertex="1">
                    <mxGeometry x="169" y="-48" width="149" height="64" as="geometry"/>
                </mxCell>
                <mxCell id="70" style="edgeStyle=none;html=1;entryX=0;entryY=0.5;entryDx=0;entryDy=0;exitX=0.5;exitY=0.5;exitDx=0;exitDy=0;exitPerimeter=0;" parent="1" source="65" target="43" edge="1">
                    <mxGeometry relative="1" as="geometry">
                        <mxPoint x="24" y="31" as="targetPoint"/>
                        <mxPoint x="73" y="34" as="sourcePoint"/>
                    </mxGeometry>
                </mxCell>
                <mxCell id="43" value="Proxima cuota a pagar" style="ellipse;whiteSpace=wrap;html=1;" parent="1" vertex="1">
                    <mxGeometry x="302" y="-1" width="140" height="70" as="geometry"/>
                </mxCell>
                <mxCell id="65" value="Cliente" style="shape=umlActor;verticalLabelPosition=bottom;verticalAlign=top;html=1;" parent="1" vertex="1">
                    <mxGeometry x="43" y="-7" width="30" height="60" as="geometry"/>
                </mxCell>
                <mxCell id="75" style="edgeStyle=none;html=1;exitX=0.8;exitY=0.8;exitDx=0;exitDy=0;exitPerimeter=0;entryX=0.007;entryY=0.414;entryDx=0;entryDy=0;entryPerimeter=0;" parent="1" target="16" edge="1" source="65">
                    <mxGeometry relative="1" as="geometry">
                        <mxPoint x="240" y="44" as="targetPoint"/>
                        <mxPoint x="20.99000000000001" y="37" as="sourcePoint"/>
                    </mxGeometry>
                </mxCell>
            </root>
        </mxGraphModel>
    </diagram>
</mxfile>